<svg width="150" height="24" viewBox="0 0 150 24" fill="none" xmlns="http://www.w3.org/2000/svg">
    <path d="M136.143 6.62753C136.93 4.66653 137.323 3.68604 138 3.68604C138.676 3.68604 139.069 4.66653 139.856 6.62753L139.892 6.71885C140.337 7.82672 140.559 8.38065 141.012 8.71734C141.465 9.05403 142.059 9.10727 143.248 9.21374L143.463 9.23299C145.409 9.40726 146.382 9.49439 146.59 10.1134C146.798 10.7324 146.076 11.3897 144.631 12.7044L144.148 13.1432C143.417 13.8087 143.051 14.1414 142.881 14.5776C142.849 14.6589 142.822 14.7423 142.801 14.8271C142.689 15.2817 142.796 15.7645 143.011 16.7299L143.077 17.0305C143.471 18.8048 143.668 19.692 143.324 20.0746C143.196 20.2176 143.029 20.3206 142.843 20.3712C142.347 20.5066 141.643 19.9325 140.234 18.7844C139.309 18.0305 138.846 17.6536 138.315 17.5688C138.106 17.5354 137.893 17.5354 137.684 17.5688C137.153 17.6536 136.691 18.0305 135.765 18.7844C134.356 19.9325 133.652 20.5066 133.156 20.3712C132.97 20.3206 132.803 20.2176 132.675 20.0746C132.331 19.692 132.528 18.8048 132.922 17.0305L132.989 16.7299C133.203 15.7645 133.31 15.2817 133.198 14.8271C133.177 14.7423 133.15 14.6589 133.119 14.5776C132.948 14.1414 132.582 13.8087 131.851 13.1432L131.369 12.7044C129.924 11.3897 129.201 10.7324 129.409 10.1134C129.617 9.49439 130.59 9.40726 132.536 9.23299L132.751 9.21374C133.94 9.10727 134.534 9.05403 134.987 8.71734C135.44 8.38065 135.662 7.82672 136.107 6.71885L136.143 6.62753Z" stroke="#FDED01"/>
    <path d="M107.307 7.21986C107.95 5.61918 108.271 4.81883 108.792 4.70791C108.929 4.67874 109.071 4.67874 109.208 4.70791C109.73 4.81883 110.051 5.61918 110.693 7.21986C111.058 8.13014 111.241 8.58528 111.582 8.89485C111.678 8.98168 111.782 9.05901 111.893 9.12576C112.288 9.36374 112.781 9.40788 113.766 9.49617C115.435 9.64562 116.269 9.72034 116.524 10.1961C116.577 10.2946 116.613 10.4013 116.63 10.5117C116.715 11.0447 116.101 11.6028 114.875 12.7189L114.534 13.0288C113.96 13.5506 113.674 13.8115 113.508 14.1372C113.408 14.3325 113.342 14.5428 113.31 14.7598C113.258 15.1215 113.342 15.5 113.51 16.2569L113.57 16.5274C113.871 17.8849 114.022 18.5637 113.834 18.8973C113.665 19.197 113.354 19.3889 113.01 19.4053C112.628 19.4236 112.089 18.9844 111.011 18.106C110.301 17.5273 109.946 17.2379 109.551 17.1249C109.191 17.0216 108.809 17.0216 108.449 17.1249C108.055 17.2379 107.7 17.5273 106.989 18.106C105.911 18.9844 105.372 19.4236 104.99 19.4053C104.646 19.3889 104.335 19.197 104.166 18.8973C103.978 18.5637 104.129 17.8849 104.43 16.5274L104.49 16.2569C104.658 15.5 104.742 15.1215 104.69 14.7598C104.659 14.5428 104.592 14.3325 104.493 14.1372C104.327 13.8115 104.04 13.5506 103.466 13.0288L103.126 12.7189C101.899 11.6028 101.286 11.0447 101.37 10.5117C101.387 10.4013 101.423 10.2946 101.476 10.1961C101.731 9.72034 102.565 9.64562 104.234 9.49617C105.22 9.40788 105.713 9.36374 106.108 9.12576C106.218 9.05901 106.322 8.98168 106.418 8.89485C106.76 8.58528 106.942 8.13014 107.307 7.21986Z" fill="#FDED01" stroke="#FDED01" stroke-width="2"/>
    <path d="M78.3075 7.21986C78.9496 5.61918 79.2706 4.81883 79.7922 4.70791C79.9293 4.67874 80.0711 4.67874 80.2082 4.70791C80.7298 4.81883 81.0508 5.61918 81.6929 7.21986C82.058 8.13014 82.2406 8.58528 82.5822 8.89485C82.678 8.98168 82.782 9.05901 82.8928 9.12576C83.2876 9.36374 83.7805 9.40788 84.7663 9.49617C86.4351 9.64562 87.2695 9.72034 87.5243 10.1961C87.577 10.2946 87.6129 10.4013 87.6304 10.5117C87.7149 11.0447 87.1015 11.6028 85.8747 12.7189L85.534 13.0288C84.9605 13.5506 84.6737 13.8115 84.5078 14.1372C84.4083 14.3325 84.3416 14.5428 84.3104 14.7598C84.2582 15.1215 84.3422 15.5 84.5102 16.2569L84.5702 16.5274C84.8714 17.8849 85.022 18.5637 84.834 18.8973C84.6651 19.197 84.3541 19.3889 84.0105 19.4053C83.6279 19.4236 83.089 18.9844 82.011 18.106C81.3008 17.5273 80.9457 17.2379 80.5515 17.1249C80.1912 17.0216 79.8092 17.0216 79.4489 17.1249C79.0547 17.2379 78.6996 17.5273 77.9894 18.106C76.9114 18.9844 76.3724 19.4236 75.9899 19.4053C75.6463 19.3889 75.3353 19.197 75.1664 18.8973C74.9784 18.5637 75.129 17.8849 75.4302 16.5274L75.4902 16.2569C75.6582 15.5 75.7422 15.1215 75.69 14.7598C75.6588 14.5428 75.5921 14.3325 75.4926 14.1372C75.3267 13.8115 75.0399 13.5506 74.4664 13.0288L74.1257 12.7189C72.8989 11.6028 72.2855 11.0447 72.37 10.5117C72.3875 10.4013 72.4234 10.2946 72.4761 10.1961C72.7309 9.72034 73.5653 9.64562 75.2341 9.49617C76.2199 9.40788 76.7128 9.36374 77.1076 9.12576C77.2183 9.05901 77.3224 8.98168 77.4182 8.89485C77.7598 8.58528 77.9424 8.13014 78.3075 7.21986Z" fill="#FDED01" stroke="#FDED01" stroke-width="2"/>
    <path d="M44.3075 7.21986C44.9496 5.61918 45.2706 4.81883 45.7922 4.70791C45.9293 4.67874 46.0711 4.67874 46.2082 4.70791C46.7298 4.81883 47.0508 5.61918 47.6929 7.21986C48.058 8.13014 48.2406 8.58528 48.5822 8.89485C48.678 8.98168 48.782 9.05901 48.8928 9.12576C49.2876 9.36374 49.7805 9.40788 50.7663 9.49617C52.4351 9.64562 53.2695 9.72034 53.5243 10.1961C53.577 10.2946 53.6129 10.4013 53.6304 10.5117C53.7149 11.0447 53.1015 11.6028 51.8747 12.7189L51.534 13.0288C50.9605 13.5506 50.6737 13.8115 50.5078 14.1372C50.4083 14.3325 50.3416 14.5428 50.3104 14.7598C50.2582 15.1215 50.3422 15.5 50.5102 16.2569L50.5702 16.5274C50.8714 17.8849 51.022 18.5637 50.834 18.8973C50.6651 19.197 50.3541 19.3889 50.0105 19.4053C49.6279 19.4236 49.089 18.9844 48.011 18.106C47.3008 17.5273 46.9457 17.2379 46.5515 17.1249C46.1912 17.0216 45.8092 17.0216 45.4489 17.1249C45.0547 17.2379 44.6996 17.5273 43.9894 18.106C42.9114 18.9844 42.3724 19.4236 41.9899 19.4053C41.6463 19.3889 41.3353 19.197 41.1664 18.8973C40.9784 18.5637 41.129 17.8849 41.4302 16.5274L41.4902 16.2569C41.6582 15.5 41.7422 15.1215 41.69 14.7598C41.6588 14.5428 41.5921 14.3325 41.4926 14.1372C41.3267 13.8115 41.0399 13.5506 40.4664 13.0288L40.1257 12.7189C38.8989 11.6028 38.2855 11.0447 38.37 10.5117C38.3875 10.4013 38.4234 10.2946 38.4761 10.1961C38.7309 9.72034 39.5653 9.64562 41.2341 9.49617C42.2199 9.40788 42.7128 9.36374 43.1076 9.12576C43.2183 9.05901 43.3224 8.98168 43.4182 8.89485C43.7598 8.58528 43.9424 8.13014 44.3075 7.21986Z" fill="#FDED01" stroke="#FDED01" stroke-width="2"/>
    <path d="M10.3075 7.21986C10.9496 5.61918 11.2706 4.81883 11.7922 4.70791C11.9293 4.67874 12.0711 4.67874 12.2082 4.70791C12.7298 4.81883 13.0508 5.61918 13.6929 7.21986C14.058 8.13014 14.2406 8.58528 14.5822 8.89485C14.678 8.98168 14.782 9.05901 14.8928 9.12576C15.2876 9.36374 15.7805 9.40788 16.7663 9.49617C18.4351 9.64562 19.2695 9.72034 19.5243 10.1961C19.577 10.2946 19.6129 10.4013 19.6304 10.5117C19.7149 11.0447 19.1015 11.6028 17.8747 12.7189L17.534 13.0288C16.9605 13.5506 16.6737 13.8115 16.5078 14.1372C16.4083 14.3325 16.3416 14.5428 16.3104 14.7598C16.2582 15.1215 16.3422 15.5 16.5102 16.2569L16.5702 16.5274C16.8714 17.8849 17.022 18.5637 16.834 18.8973C16.6651 19.197 16.3541 19.3889 16.0105 19.4053C15.6279 19.4236 15.089 18.9844 14.011 18.106C13.3008 17.5273 12.9457 17.2379 12.5515 17.1249C12.1912 17.0216 11.8092 17.0216 11.4489 17.1249C11.0547 17.2379 10.6996 17.5273 9.98941 18.106C8.91144 18.9844 8.37245 19.4236 7.98993 19.4053C7.64633 19.3889 7.33528 19.197 7.16642 18.8973C6.97842 18.5637 7.12902 17.8849 7.43022 16.5274L7.49023 16.2569C7.65818 15.5 7.74216 15.1215 7.69004 14.7598C7.65878 14.5428 7.59207 14.3325 7.49257 14.1372C7.32669 13.8115 7.03992 13.5506 6.46637 13.0288L6.1257 12.7189C4.89891 11.6028 4.28552 11.0447 4.36999 10.5117C4.38749 10.4013 4.42337 10.2946 4.47614 10.1961C4.73094 9.72034 5.56532 9.64562 7.23408 9.49617C8.21986 9.40788 8.71276 9.36374 9.1076 9.12576C9.21834 9.05901 9.32236 8.98168 9.41818 8.89485C9.75979 8.58528 9.94236 8.13014 10.3075 7.21986Z" fill="#FDED01" stroke="#FDED01" stroke-width="2"/>
</svg>